<svg id="Capa_1" enable-background="new 0 0 512 512" height="512" viewBox="0 0 512 512" width="512" xmlns="http://www.w3.org/2000/svg"><g><path d="m404.751 74.517c3.016-35.257-7.145-63.49-7.579-64.675-2.606-7.113-10.106-11.168-17.484-9.449-71.825 16.713-105.819 64.453-121.689 101.56-2.405 5.624-4.462 11.16-6.239 16.535-13.693-34.092-36.463-78.979-69.463-95.488-7.409-3.707-16.419-.705-20.126 6.702-3.707 7.408-.706 16.418 6.703 20.125 29.426 14.721 53.138 70.669 65.415 108.223-35.392-6.52-98.981-11.605-141.703 23.188-32.552 26.511-46.156 70.009-40.433 129.287 9.5 98.394 57.73 146.22 98.688 176.894 39.654 29.697 62.077 25.79 83.776 22.007 19.083-3.328 24.782-3.097 42.896-.048 21.426 3.608 45.713 7.695 83.611-22.649 42.942-34.383 88.225-82.183 98.486-176.015 6.158-56.309-6.531-98.334-37.714-124.908-16.694-14.226-36.896-22.315-57.462-26.56 28.896-27.204 38.167-59.585 40.317-84.729zm-32.24-41.039c1.919 9.443 3.664 23.128 2.35 38.483-3.111 36.375-21.826 64.369-55.638 83.258-18.084.204-34.447 2.277-46.525 4.37 1.859-12.257 5.628-29.157 13.286-46.773 17.258-39.698 46.33-66.333 86.527-79.338zm57.276 273.973c-9.044 82.707-47.359 123.787-87.416 155.86-27.413 21.948-40.328 19.772-59.878 16.483-21.979-3.699-31.329-3.707-53.031.078-18.88 3.292-31.353 5.467-60.638-16.465-36.02-26.976-78.439-69.06-86.811-155.767-7.548-78.176 21.894-124.3 102.484-124.3 38.129 0 66.379 9.936 70.701 10.134 1.51.07 3.036-.062 4.666-.51 29.926-8.24 63.6-7.714 64.601-7.811 81.598.66 113.861 44.22 105.322 122.298z"/><path d="m327.653 235.705c.503 8.268 7.614 14.561 15.883 14.06.04-.001 4.918-.088 10.236 2.228 7.435 3.238 12.084 9.605 14.216 19.463 1.75 8.096 9.733 13.241 17.831 11.49 8.097-1.75 13.242-9.733 11.491-17.829-8.217-38.004-39.965-46.248-55.597-45.294-8.268.503-14.564 7.614-14.06 15.882z"/></g></svg>