<svg id="Capa_1" enable-background="new 0 0 512 512" height="512" viewBox="0 0 512 512" width="512" xmlns="http://www.w3.org/2000/svg"><g><path d="m483.62 328.12c4.142 0 7.5-3.358 7.5-7.5v-290.52c0-16.597-13.503-30.1-30.1-30.1h-410.04c-16.597 0-30.1 13.503-30.1 30.1v352.52c0 16.597 13.503 30.1 30.1 30.1h24.171v39.425c-12.728 3.964-21.995 15.856-21.995 29.872v22.483c0 4.142 3.358 7.5 7.5 7.5h90.046c4.142 0 7.5-3.358 7.5-7.5v-22.483c0-14.015-9.265-25.906-21.991-29.871v-39.426h239.578v39.426c-12.726 3.965-21.991 15.857-21.991 29.871v22.483c0 4.142 3.358 7.5 7.5 7.5h90.046c4.142 0 7.5-3.358 7.5-7.5v-22.483c0-14.016-9.267-25.908-21.995-29.872v-39.425h24.171c16.597 0 30.1-13.503 30.1-30.1v-32c0-4.142-3.358-7.5-7.5-7.5s-7.5 3.358-7.5 7.5v32c0 8.326-6.774 15.1-15.1 15.1h-410.04c-8.326 0-15.1-6.774-15.1-15.1v-352.52c0-8.326 6.774-15.1 15.1-15.1h410.04c8.326 0 15.1 6.774 15.1 15.1v290.52c0 4.142 3.358 7.5 7.5 7.5zm-340.418 153.897v14.983h-75.046v-14.983c0-8.963 7.282-16.256 16.24-16.277h42.566c8.959.021 16.24 7.314 16.24 16.277zm-21.991-31.279h-31.06v-38.018h31.06zm322.633 31.279v14.983h-75.046v-14.983c0-8.963 7.282-16.256 16.24-16.277h42.566c8.958.021 16.24 7.314 16.24 16.277zm-21.995-31.279h-31.06v-38.018h31.06z"/><path d="m68.398 40.021c-4.142 0-7.5 3.358-7.5 7.5v317.677c0 4.142 3.358 7.5 7.5 7.5h375.203c4.142 0 7.5-3.358 7.5-7.5v-317.677c0-4.142-3.358-7.5-7.5-7.5zm241.727 240.927v-67.088h55.915v67.088zm55.915 15v61.75h-55.915v-61.75zm-290.142-82.088h219.226v67.088h-219.226zm290.142-82.09v67.09h-55.915v-67.09zm-55.915-15v-61.749h55.915v61.749zm125.977 82.09h-55.062v-67.09h55.062zm-55.062 15h55.062v67.088h-55.062zm55.062-97.09h-55.062v-61.749h55.062zm-140.977-61.749v61.749h-143.765c-4.142 0-7.5 3.358-7.5 7.5s3.358 7.5 7.5 7.5h143.765v67.09h-219.227v-67.09h45.461c4.142 0 7.5-3.358 7.5-7.5s-3.358-7.5-7.5-7.5h-45.461v-61.749zm-219.227 240.927h219.226v61.75h-219.226zm305.142 61.75v-61.75h55.062v61.75z"/></g></svg>